  0
SECTION
  2
HEADER
  9
$ANGBASE
  50
0.0
  9
$ANGDIR
  70
1
  9
$MEASUREMENT
  70
1
  0
ENDSEC
  0
SECTION
  2
TABLES
  0
TABLE
  2
LTYPE
  70
4
  0
LTYPE
  5
40F
  2
CONTINUOUS
  70
0
  3
Solid line
  72
65
  73
0
  40
0.0
  0
LTYPE
  5
410
  2
DASHDOT
 70
0
  3
Dash Dot ____ _ ____ _
 72
65
 73
4
 40
2.0
 49
1.25
 49
-0.25
 49
0.25
 49
-0.25
  0
LTYPE
  5
411
  2
DASHED
 70
0
  3
Dashed __ __ __ __ __
 72
65
 73
2
 40
0.75
 49
0.5
 49
-0.25
  0
LTYPE
  5
43B
  2
DOTTED
 70
0
  3
Dotted .  .  .  .
 72
65
 73
2
 40
0.2
 49
0.0
 49
-0.2
  0
ENDTAB
  0
TABLE
  2
STYLE
  70
4
  0
STYLE
  2
KICAD
  70
0
  40
0
  41
1
  42
1
  50
0
  71
0
  3
isocp.shx
  0
STYLE
  2
KICADB
  70
0
  40
0
  41
1
  42
1
  50
0
  71
0
  3
isocp.shx
  0
STYLE
  2
KICADI
  70
0
  40
0
  41
1
  42
1
  50
15
  71
0
  3
isocp.shx
  0
STYLE
  2
KICADBI
  70
0
  40
0
  41
1
  42
1
  50
15
  71
0
  3
isocp.shx
  0
ENDTAB
  0
TABLE
  2
LAYER
  70
1
  0
LAYER
  2
BLACK
  70
0
  62
7
  6
CONTINUOUS
  0
ENDTAB
  0
ENDSEC
  0
SECTION
  2
ENTITIES
0
LINE
8
BLACK
6
CONTINUOUS
10
163.0956459999999879
20
-71.9638640000000009
11
163.1091759999999908
21
-71.9773939999999897
0
LINE
8
BLACK
6
CONTINUOUS
10
163.1091759999999908
20
-71.9773939999999897
11
163.1110789999999895
21
-71.9869609999999938
0
LINE
8
BLACK
6
CONTINUOUS
10
163.1110789999999895
20
-71.9869609999999938
11
163.1110789999999895
21
-143.3443139999999971
0
LINE
8
BLACK
6
CONTINUOUS
10
163.1110789999999895
20
-143.3443139999999971
11
163.1091759999999908
21
-143.3538810000000012
0
LINE
8
BLACK
6
CONTINUOUS
10
163.1091759999999908
20
-143.3538810000000012
11
163.0956459999999879
21
-143.3674110000000042
0
LINE
8
BLACK
6
CONTINUOUS
10
163.0956459999999879
20
-143.3674110000000042
11
163.0860789999999838
21
-143.3693140000000028
0
LINE
8
BLACK
6
CONTINUOUS
10
163.0860789999999838
20
-143.3693140000000028
11
89.7167949999999905
21
-143.3693140000000028
0
LINE
8
BLACK
6
CONTINUOUS
10
89.7167949999999905
20
-143.3693140000000028
11
89.7072280000000006
21
-143.3674110000000042
0
LINE
8
BLACK
6
CONTINUOUS
10
89.7072280000000006
20
-143.3674110000000042
11
89.6936979999999977
21
-143.3538810000000012
0
LINE
8
BLACK
6
CONTINUOUS
10
89.6936979999999977
20
-143.3538810000000012
11
89.691794999999999
21
-143.3443139999999971
0
LINE
8
BLACK
6
CONTINUOUS
10
89.691794999999999
20
-143.3443139999999971
11
89.691794999999999
21
-71.9869609999999938
0
LINE
8
BLACK
6
CONTINUOUS
10
89.691794999999999
20
-71.9869609999999938
11
89.6936979999999977
21
-71.9773939999999897
0
LINE
8
BLACK
6
CONTINUOUS
10
89.6936979999999977
20
-71.9773939999999897
11
89.7072280000000006
21
-71.9638640000000009
0
LINE
8
BLACK
6
CONTINUOUS
10
89.7072280000000006
20
-71.9638640000000009
11
89.7167949999999905
21
-71.9619610000000023
0
LINE
8
BLACK
6
CONTINUOUS
10
89.7167949999999905
20
-71.9619610000000023
11
163.0860789999999838
21
-71.9619610000000023
0
LINE
8
BLACK
6
CONTINUOUS
10
163.0860789999999838
20
-71.9619610000000023
11
163.0956459999999879
21
-71.9638640000000009
0
LINE
8
BLACK
6
CONTINUOUS
10
89.7417949999999962
20
-72.0119609999999994
11
89.7417949999999962
21
-143.3193139999999914
0
LINE
8
BLACK
6
CONTINUOUS
10
89.7417949999999962
20
-143.3193139999999914
11
163.0610790000000065
21
-143.3193139999999914
0
LINE
8
BLACK
6
CONTINUOUS
10
163.0610790000000065
20
-143.3193139999999914
11
163.0610790000000065
21
-72.0119609999999994
0
LINE
8
BLACK
6
CONTINUOUS
10
163.0610790000000065
20
-72.0119609999999994
11
89.7417949999999962
21
-72.0119609999999994
0
CIRCLE
8
BLACK
10
107.0584580000000017
20
-140.0087100000000078
40
0.5
0
CIRCLE
8
BLACK
10
109.5984579999999937
20
-140.0087100000000078
40
0.5
0
CIRCLE
8
BLACK
10
112.138458
20
-140.0087100000000078
40
0.5
0
CIRCLE
8
BLACK
10
142.1514520000000061
20
-139.7265759999999943
40
0.5499999999999999
0
CIRCLE
8
BLACK
10
152.3114520000000027
20
-139.7265759999999943
40
0.5499999999999999
0
CIRCLE
8
BLACK
10
157.7257610000000057
20
-120.5659390000000002
40
1.0999999999999999
0
CIRCLE
8
BLACK
10
154.6957610000000045
20
-120.8659389999999973
40
0.9249999999999999
0
CIRCLE
8
BLACK
10
154.6957610000000045
20
-125.7159389999999917
40
0.9249999999999999
0
CIRCLE
8
BLACK
10
157.7257610000000057
20
-126.0159389999999888
40
1.0999999999999999
0
CIRCLE
8
BLACK
10
157.8557610000000011
20
-114.4009389999999939
40
0.5
0
CIRCLE
8
BLACK
10
155.3157609999999806
20
-114.4009389999999939
40
0.5
0
CIRCLE
8
BLACK
10
152.7757609999999886
20
-114.4009389999999939
40
0.5
0
CIRCLE
8
BLACK
10
150.2357609999999966
20
-114.4009389999999939
40
0.5
0
CIRCLE
8
BLACK
10
147.6957610000000045
20
-114.4009389999999939
40
0.5
0
CIRCLE
8
BLACK
10
145.1557609999999841
20
-114.4009389999999939
40
0.5
0
CIRCLE
8
BLACK
10
142.615760999999992
20
-114.4009389999999939
40
0.5
0
CIRCLE
8
BLACK
10
140.075761
20
-114.4009389999999939
40
0.5
0
CIRCLE
8
BLACK
10
137.5357610000000079
20
-114.4009389999999939
40
0.5
0
CIRCLE
8
BLACK
10
134.9957609999999875
20
-114.4009389999999939
40
0.5
0
CIRCLE
8
BLACK
10
132.4557609999999954
20
-114.4009389999999939
40
0.5
0
CIRCLE
8
BLACK
10
129.9157610000000034
20
-114.4009389999999939
40
0.5
0
CIRCLE
8
BLACK
10
127.3757609999999971
20
-114.4009389999999939
40
0.5
0
CIRCLE
8
BLACK
10
124.8357609999999909
20
-114.4009389999999939
40
0.5
0
CIRCLE
8
BLACK
10
122.2957609999999988
20
-114.4009389999999939
40
0.5
0
CIRCLE
8
BLACK
10
119.7557609999999926
20
-114.4009389999999939
40
0.5
0
CIRCLE
8
BLACK
10
117.2157610000000005
20
-114.4009389999999939
40
0.5
0
CIRCLE
8
BLACK
10
114.6757609999999943
20
-114.4009389999999939
40
0.5
0
CIRCLE
8
BLACK
10
112.135760999999988
20
-114.4009389999999939
40
0.5
0
CIRCLE
8
BLACK
10
109.595760999999996
20
-114.4009389999999939
40
0.5
0
CIRCLE
8
BLACK
10
109.595760999999996
20
-132.1809389999999951
40
0.5
0
CIRCLE
8
BLACK
10
112.135760999999988
20
-132.1809389999999951
40
0.5
0
CIRCLE
8
BLACK
10
114.6757609999999943
20
-132.1809389999999951
40
0.5
0
CIRCLE
8
BLACK
10
117.2157610000000005
20
-132.1809389999999951
40
0.5
0
CIRCLE
8
BLACK
10
119.7557609999999926
20
-132.1809389999999951
40
0.5
0
CIRCLE
8
BLACK
10
122.2957609999999988
20
-132.1809389999999951
40
0.5
0
CIRCLE
8
BLACK
10
124.8357609999999909
20
-132.1809389999999951
40
0.5
0
CIRCLE
8
BLACK
10
127.3757609999999971
20
-132.1809389999999951
40
0.5
0
CIRCLE
8
BLACK
10
129.9157610000000034
20
-132.1809389999999951
40
0.5
0
CIRCLE
8
BLACK
10
132.4557609999999954
20
-132.1809389999999951
40
0.5
0
CIRCLE
8
BLACK
10
134.9957609999999875
20
-132.1809389999999951
40
0.5
0
CIRCLE
8
BLACK
10
137.5357610000000079
20
-132.1809389999999951
40
0.5
0
CIRCLE
8
BLACK
10
140.075761
20
-132.1809389999999951
40
0.5
0
CIRCLE
8
BLACK
10
142.615760999999992
20
-132.1809389999999951
40
0.5
0
CIRCLE
8
BLACK
10
145.1557609999999841
20
-132.1809389999999951
40
0.5
0
CIRCLE
8
BLACK
10
147.6957610000000045
20
-132.1809389999999951
40
0.5
0
CIRCLE
8
BLACK
10
150.2357609999999966
20
-132.1809389999999951
40
0.5
0
CIRCLE
8
BLACK
10
152.7757609999999886
20
-132.1809389999999951
40
0.5
0
CIRCLE
8
BLACK
10
155.3157609999999806
20
-132.1809389999999951
40
0.5
0
CIRCLE
8
BLACK
10
157.8557610000000011
20
-132.1809389999999951
40
0.5
0
CIRCLE
8
BLACK
10
95.8535329999999988
20
-107.7809609999999907
40
0.5
0
CIRCLE
8
BLACK
10
95.8535329999999988
20
-110.3209609999999969
40
0.5
0
CIRCLE
8
BLACK
10
95.8535329999999988
20
-112.860960999999989
40
0.5
0
CIRCLE
8
BLACK
10
95.8535329999999988
20
-115.4009609999999952
40
0.5
0
CIRCLE
8
BLACK
10
95.8535329999999988
20
-117.9409610000000015
40
0.5
0
CIRCLE
8
BLACK
10
95.8535329999999988
20
-120.4809609999999935
40
0.5
0
CIRCLE
8
BLACK
10
95.8535329999999988
20
-123.0209609999999998
40
0.5
0
CIRCLE
8
BLACK
10
95.8535329999999988
20
-125.5609609999999918
40
0.5
0
CIRCLE
8
BLACK
10
93.007953999999998
20
-101.542554999999993
40
0.4
0
CIRCLE
8
BLACK
10
93.007953999999998
20
-99.042554999999993
40
0.4
0
CIRCLE
8
BLACK
10
145.1557609999999841
20
-96.6501359999999892
40
0.4
0
CIRCLE
8
BLACK
10
142.615760999999992
20
-96.6501359999999892
40
0.4
0
CIRCLE
8
BLACK
10
140.075761
20
-96.6501359999999892
40
0.4
0
CIRCLE
8
BLACK
10
137.5357610000000079
20
-96.6501359999999892
40
0.4
0
CIRCLE
8
BLACK
10
134.9957609999999875
20
-96.6501359999999892
40
0.4
0
CIRCLE
8
BLACK
10
132.4557609999999954
20
-96.6501359999999892
40
0.4
0
CIRCLE
8
BLACK
10
129.9157610000000034
20
-96.6501359999999892
40
0.4
0
CIRCLE
8
BLACK
10
127.3757609999999971
20
-96.6501359999999892
40
0.4
0
CIRCLE
8
BLACK
10
124.8357609999999909
20
-96.6501359999999892
40
0.4
0
CIRCLE
8
BLACK
10
122.2957609999999988
20
-96.6501359999999892
40
0.4
0
CIRCLE
8
BLACK
10
122.2957609999999988
20
-104.2701359999999937
40
0.4
0
CIRCLE
8
BLACK
10
124.8357609999999909
20
-104.2701359999999937
40
0.4
0
CIRCLE
8
BLACK
10
127.3757609999999971
20
-104.2701359999999937
40
0.4
0
CIRCLE
8
BLACK
10
129.9157610000000034
20
-104.2701359999999937
40
0.4
0
CIRCLE
8
BLACK
10
132.4557609999999954
20
-104.2701359999999937
40
0.4
0
CIRCLE
8
BLACK
10
134.9957609999999875
20
-104.2701359999999937
40
0.4
0
CIRCLE
8
BLACK
10
137.5357610000000079
20
-104.2701359999999937
40
0.4
0
CIRCLE
8
BLACK
10
140.075761
20
-104.2701359999999937
40
0.4
0
CIRCLE
8
BLACK
10
142.615760999999992
20
-104.2701359999999937
40
0.4
0
CIRCLE
8
BLACK
10
145.1557609999999841
20
-104.2701359999999937
40
0.4
0
CIRCLE
8
BLACK
10
150.147120000000001
20
-88.2518759999999958
40
0.381
0
CIRCLE
8
BLACK
10
150.147120000000001
20
-85.7118759999999895
40
0.381
0
CIRCLE
8
BLACK
10
160.3071199999999976
20
-88.2518759999999958
40
0.381
0
CIRCLE
8
BLACK
10
157.7671200000000056
20
-88.2518759999999958
40
0.381
0
CIRCLE
8
BLACK
10
155.2271199999999851
20
-88.2518759999999958
40
0.381
0
CIRCLE
8
BLACK
10
152.6871199999999931
20
-88.2518759999999958
40
0.381
0
CIRCLE
8
BLACK
10
147.6071199999999806
20
-88.2518759999999958
40
0.381
0
CIRCLE
8
BLACK
10
145.0671199999999885
20
-88.2518759999999958
40
0.381
0
CIRCLE
8
BLACK
10
142.5271199999999965
20
-88.2518759999999958
40
0.381
0
CIRCLE
8
BLACK
10
139.9871200000000044
20
-88.2518759999999958
40
0.381
0
CIRCLE
8
BLACK
10
137.447119999999984
20
-88.2518759999999958
40
0.381
0
CIRCLE
8
BLACK
10
134.9071199999999919
20
-88.2518759999999958
40
0.381
0
CIRCLE
8
BLACK
10
132.3671199999999999
20
-88.2518759999999958
40
0.381
0
CIRCLE
8
BLACK
10
129.8271200000000078
20
-88.2518759999999958
40
0.381
0
CIRCLE
8
BLACK
10
127.2871199999999874
20
-88.2518759999999958
40
0.381
0
CIRCLE
8
BLACK
10
124.7471199999999953
20
-88.2518759999999958
40
0.381
0
CIRCLE
8
BLACK
10
122.2071199999999891
20
-88.2518759999999958
40
0.381
0
CIRCLE
8
BLACK
10
119.667119999999997
20
-88.2518759999999958
40
0.381
0
CIRCLE
8
BLACK
10
117.1271199999999908
20
-88.2518759999999958
40
0.381
0
CIRCLE
8
BLACK
10
114.5871199999999988
20
-88.2518759999999958
40
0.381
0
CIRCLE
8
BLACK
10
112.0471199999999925
20
-88.2518759999999958
40
0.381
0
CIRCLE
8
BLACK
10
109.5071200000000005
20
-88.2518759999999958
40
0.381
0
CIRCLE
8
BLACK
10
106.9671199999999942
20
-88.2518759999999958
40
0.381
0
CIRCLE
8
BLACK
10
104.4271200000000022
20
-88.2518759999999958
40
0.381
0
CIRCLE
8
BLACK
10
101.8871199999999959
20
-88.2518759999999958
40
0.381
0
CIRCLE
8
BLACK
10
99.3471199999999897
20
-88.2518759999999958
40
0.381
0
CIRCLE
8
BLACK
10
96.8071199999999976
20
-88.2518759999999958
40
0.381
0
CIRCLE
8
BLACK
10
94.2671199999999914
20
-88.2518759999999958
40
0.381
0
CIRCLE
8
BLACK
10
91.7271199999999993
20
-88.2518759999999958
40
0.381
0
CIRCLE
8
BLACK
10
160.3071199999999976
20
-85.7118759999999895
40
0.381
0
CIRCLE
8
BLACK
10
157.7671200000000056
20
-85.7118759999999895
40
0.381
0
CIRCLE
8
BLACK
10
155.2271199999999851
20
-85.7118759999999895
40
0.381
0
CIRCLE
8
BLACK
10
152.6871199999999931
20
-85.7118759999999895
40
0.381
0
CIRCLE
8
BLACK
10
147.6071199999999806
20
-85.7118759999999895
40
0.381
0
CIRCLE
8
BLACK
10
145.0671199999999885
20
-85.7118759999999895
40
0.381
0
CIRCLE
8
BLACK
10
142.5271199999999965
20
-85.7118759999999895
40
0.381
0
CIRCLE
8
BLACK
10
139.9871200000000044
20
-85.7118759999999895
40
0.381
0
CIRCLE
8
BLACK
10
137.447119999999984
20
-85.7118759999999895
40
0.381
0
CIRCLE
8
BLACK
10
134.9071199999999919
20
-85.7118759999999895
40
0.381
0
CIRCLE
8
BLACK
10
132.3671199999999999
20
-85.7118759999999895
40
0.381
0
CIRCLE
8
BLACK
10
129.8271200000000078
20
-85.7118759999999895
40
0.381
0
CIRCLE
8
BLACK
10
127.2871199999999874
20
-85.7118759999999895
40
0.381
0
CIRCLE
8
BLACK
10
124.7471199999999953
20
-85.7118759999999895
40
0.381
0
CIRCLE
8
BLACK
10
122.2071199999999891
20
-85.7118759999999895
40
0.381
0
CIRCLE
8
BLACK
10
119.667119999999997
20
-85.7118759999999895
40
0.381
0
CIRCLE
8
BLACK
10
117.1271199999999908
20
-85.7118759999999895
40
0.381
0
CIRCLE
8
BLACK
10
114.5871199999999988
20
-85.7118759999999895
40
0.381
0
CIRCLE
8
BLACK
10
112.0471199999999925
20
-85.7118759999999895
40
0.381
0
CIRCLE
8
BLACK
10
109.5071200000000005
20
-85.7118759999999895
40
0.381
0
CIRCLE
8
BLACK
10
106.9671199999999942
20
-85.7118759999999895
40
0.381
0
CIRCLE
8
BLACK
10
104.4271200000000022
20
-85.7118759999999895
40
0.381
0
CIRCLE
8
BLACK
10
101.8871199999999959
20
-85.7118759999999895
40
0.381
0
CIRCLE
8
BLACK
10
99.3471199999999897
20
-85.7118759999999895
40
0.381
0
CIRCLE
8
BLACK
10
96.8071199999999976
20
-85.7118759999999895
40
0.381
0
CIRCLE
8
BLACK
10
94.2671199999999914
20
-85.7118759999999895
40
0.381
0
CIRCLE
8
BLACK
10
91.7271199999999993
20
-85.7118759999999895
40
0.381
0
CIRCLE
8
BLACK
10
152.278412000000003
20
-93.7652109999999936
40
1.5999999999999999
0
CIRCLE
8
BLACK
10
113.6491669999999914
20
-96.5603179999999952
40
0.4
0
CIRCLE
8
BLACK
10
111.1091669999999993
20
-96.5603179999999952
40
0.4
0
CIRCLE
8
BLACK
10
108.5691669999999931
20
-96.5603179999999952
40
0.4
0
CIRCLE
8
BLACK
10
106.0291670000000011
20
-96.5603179999999952
40
0.4
0
CIRCLE
8
BLACK
10
103.4891669999999948
20
-96.5603179999999952
40
0.4
0
CIRCLE
8
BLACK
10
100.9491669999999885
20
-96.5603179999999952
40
0.4
0
CIRCLE
8
BLACK
10
98.4091669999999965
20
-96.5603179999999952
40
0.4
0
CIRCLE
8
BLACK
10
98.4091669999999965
20
-104.1803179999999998
40
0.4
0
CIRCLE
8
BLACK
10
100.9491669999999885
20
-104.1803179999999998
40
0.4
0
CIRCLE
8
BLACK
10
103.4891669999999948
20
-104.1803179999999998
40
0.4
0
CIRCLE
8
BLACK
10
106.0291670000000011
20
-104.1803179999999998
40
0.4
0
CIRCLE
8
BLACK
10
108.5691669999999931
20
-104.1803179999999998
40
0.4
0
CIRCLE
8
BLACK
10
111.1091669999999993
20
-104.1803179999999998
40
0.4
0
CIRCLE
8
BLACK
10
113.6491669999999914
20
-104.1803179999999998
40
0.4
0
CIRCLE
8
BLACK
10
98.0536019999999979
20
-139.8804719999999975
40
0.7999999999999999
0
LINE
8
BLACK
6
CONTINUOUS
10
99.1188649999999996
20
-130.3847499999999968
11
99.2449439999999896
21
-130.418531999999999
0
LINE
8
BLACK
6
CONTINUOUS
10
99.2449439999999896
20
-130.418531999999999
11
99.3579829999999902
21
-130.4837949999999864
0
LINE
8
BLACK
6
CONTINUOUS
10
99.3579829999999902
20
-130.4837949999999864
11
99.4502789999999948
21
-130.576090999999991
0
LINE
8
BLACK
6
CONTINUOUS
10
99.4502789999999948
20
-130.576090999999991
11
99.5155419999999964
21
-130.6891300000000058
0
LINE
8
BLACK
6
CONTINUOUS
10
99.5155419999999964
20
-130.6891300000000058
11
99.5493239999999986
21
-130.8152089999999816
0
LINE
8
BLACK
6
CONTINUOUS
10
99.5493239999999986
20
-130.8152089999999816
11
99.5493239999999986
21
-130.9457349999999849
0
LINE
8
BLACK
6
CONTINUOUS
10
99.5493239999999986
20
-130.9457349999999849
11
99.5155419999999964
21
-131.0718139999999892
0
LINE
8
BLACK
6
CONTINUOUS
10
99.5155419999999964
20
-131.0718139999999892
11
99.4502789999999948
21
-131.1848530000000039
0
LINE
8
BLACK
6
CONTINUOUS
10
99.4502789999999948
20
-131.1848530000000039
11
99.3579829999999902
21
-131.2771489999999801
0
LINE
8
BLACK
6
CONTINUOUS
10
99.3579829999999902
20
-131.2771489999999801
11
99.2449439999999896
21
-131.3424119999999959
0
LINE
8
BLACK
6
CONTINUOUS
10
99.2449439999999896
20
-131.3424119999999959
11
99.1188649999999996
21
-131.3761939999999981
0
LINE
8
BLACK
6
CONTINUOUS
10
99.1188649999999996
20
-131.3761939999999981
11
99.0536019999999979
21
-131.3804719999999975
0
LINE
8
BLACK
6
CONTINUOUS
10
99.0536019999999979
20
-131.3804719999999975
11
97.0536019999999979
21
-131.3804719999999975
0
LINE
8
BLACK
6
CONTINUOUS
10
97.0536019999999979
20
-131.3804719999999975
11
96.9883389999999963
21
-131.3761939999999981
0
LINE
8
BLACK
6
CONTINUOUS
10
96.9883389999999963
20
-131.3761939999999981
11
96.862259999999992
21
-131.3424119999999959
0
LINE
8
BLACK
6
CONTINUOUS
10
96.862259999999992
20
-131.3424119999999959
11
96.7492209999999915
21
-131.2771489999999801
0
LINE
8
BLACK
6
CONTINUOUS
10
96.7492209999999915
20
-131.2771489999999801
11
96.6569250000000011
21
-131.1848530000000039
0
LINE
8
BLACK
6
CONTINUOUS
10
96.6569250000000011
20
-131.1848530000000039
11
96.5916619999999995
21
-131.0718139999999892
0
LINE
8
BLACK
6
CONTINUOUS
10
96.5916619999999995
20
-131.0718139999999892
11
96.5578799999999973
21
-130.9457349999999849
0
LINE
8
BLACK
6
CONTINUOUS
10
96.5578799999999973
20
-130.9457349999999849
11
96.5578799999999973
21
-130.8152089999999816
0
LINE
8
BLACK
6
CONTINUOUS
10
96.5578799999999973
20
-130.8152089999999816
11
96.5916619999999995
21
-130.6891300000000058
0
LINE
8
BLACK
6
CONTINUOUS
10
96.5916619999999995
20
-130.6891300000000058
11
96.6569250000000011
21
-130.576090999999991
0
LINE
8
BLACK
6
CONTINUOUS
10
96.6569250000000011
20
-130.576090999999991
11
96.7492209999999915
21
-130.4837949999999864
0
LINE
8
BLACK
6
CONTINUOUS
10
96.7492209999999915
20
-130.4837949999999864
11
96.862259999999992
21
-130.418531999999999
0
LINE
8
BLACK
6
CONTINUOUS
10
96.862259999999992
20
-130.418531999999999
11
96.9883389999999963
21
-130.3847499999999968
0
LINE
8
BLACK
6
CONTINUOUS
10
96.9883389999999963
20
-130.3847499999999968
11
97.0536019999999979
21
-130.3804719999999975
0
LINE
8
BLACK
6
CONTINUOUS
10
97.0536019999999979
20
-130.3804719999999975
11
99.0536019999999979
21
-130.3804719999999975
0
LINE
8
BLACK
6
CONTINUOUS
10
99.0536019999999979
20
-130.3804719999999975
11
99.1188649999999996
21
-130.3847499999999968
0
LINE
8
BLACK
6
CONTINUOUS
10
98.768864999999991
20
-136.3847499999999968
11
98.8949439999999953
21
-136.418531999999999
0
LINE
8
BLACK
6
CONTINUOUS
10
98.8949439999999953
20
-136.418531999999999
11
99.0079829999999959
21
-136.4837949999999864
0
LINE
8
BLACK
6
CONTINUOUS
10
99.0079829999999959
20
-136.4837949999999864
11
99.1002790000000005
21
-136.576090999999991
0
LINE
8
BLACK
6
CONTINUOUS
10
99.1002790000000005
20
-136.576090999999991
11
99.1655420000000021
21
-136.6891300000000058
0
LINE
8
BLACK
6
CONTINUOUS
10
99.1655420000000021
20
-136.6891300000000058
11
99.1993239999999901
21
-136.8152089999999816
0
LINE
8
BLACK
6
CONTINUOUS
10
99.1993239999999901
20
-136.8152089999999816
11
99.1993239999999901
21
-136.9457349999999849
0
LINE
8
BLACK
6
CONTINUOUS
10
99.1993239999999901
20
-136.9457349999999849
11
99.1655420000000021
21
-137.0718139999999892
0
LINE
8
BLACK
6
CONTINUOUS
10
99.1655420000000021
20
-137.0718139999999892
11
99.1002790000000005
21
-137.1848530000000039
0
LINE
8
BLACK
6
CONTINUOUS
10
99.1002790000000005
20
-137.1848530000000039
11
99.0079829999999959
21
-137.2771489999999801
0
LINE
8
BLACK
6
CONTINUOUS
10
99.0079829999999959
20
-137.2771489999999801
11
98.8949439999999953
21
-137.3424119999999959
0
LINE
8
BLACK
6
CONTINUOUS
10
98.8949439999999953
20
-137.3424119999999959
11
98.768864999999991
21
-137.3761939999999981
0
LINE
8
BLACK
6
CONTINUOUS
10
98.768864999999991
20
-137.3761939999999981
11
98.7036019999999894
21
-137.3804719999999975
0
LINE
8
BLACK
6
CONTINUOUS
10
98.7036019999999894
20
-137.3804719999999975
11
97.4036019999999922
21
-137.3804719999999975
0
LINE
8
BLACK
6
CONTINUOUS
10
97.4036019999999922
20
-137.3804719999999975
11
97.3383389999999906
21
-137.3761939999999981
0
LINE
8
BLACK
6
CONTINUOUS
10
97.3383389999999906
20
-137.3761939999999981
11
97.2122600000000006
21
-137.3424119999999959
0
LINE
8
BLACK
6
CONTINUOUS
10
97.2122600000000006
20
-137.3424119999999959
11
97.099221
21
-137.2771489999999801
0
LINE
8
BLACK
6
CONTINUOUS
10
97.099221
20
-137.2771489999999801
11
97.0069249999999954
21
-137.1848530000000039
0
LINE
8
BLACK
6
CONTINUOUS
10
97.0069249999999954
20
-137.1848530000000039
11
96.9416619999999938
21
-137.0718139999999892
0
LINE
8
BLACK
6
CONTINUOUS
10
96.9416619999999938
20
-137.0718139999999892
11
96.9078799999999916
21
-136.9457349999999849
0
LINE
8
BLACK
6
CONTINUOUS
10
96.9078799999999916
20
-136.9457349999999849
11
96.9078799999999916
21
-136.8152089999999816
0
LINE
8
BLACK
6
CONTINUOUS
10
96.9078799999999916
20
-136.8152089999999816
11
96.9416619999999938
21
-136.6891300000000058
0
LINE
8
BLACK
6
CONTINUOUS
10
96.9416619999999938
20
-136.6891300000000058
11
97.0069249999999954
21
-136.576090999999991
0
LINE
8
BLACK
6
CONTINUOUS
10
97.0069249999999954
20
-136.576090999999991
11
97.099221
21
-136.4837949999999864
0
LINE
8
BLACK
6
CONTINUOUS
10
97.099221
20
-136.4837949999999864
11
97.2122600000000006
21
-136.418531999999999
0
LINE
8
BLACK
6
CONTINUOUS
10
97.2122600000000006
20
-136.418531999999999
11
97.3383389999999906
21
-136.3847499999999968
0
LINE
8
BLACK
6
CONTINUOUS
10
97.3383389999999906
20
-136.3847499999999968
11
97.4036019999999922
21
-136.3804719999999975
0
LINE
8
BLACK
6
CONTINUOUS
10
97.4036019999999922
20
-136.3804719999999975
11
98.7036019999999894
21
-136.3804719999999975
0
LINE
8
BLACK
6
CONTINUOUS
10
98.7036019999999894
20
-136.3804719999999975
11
98.768864999999991
21
-136.3847499999999968
0
LINE
8
BLACK
6
CONTINUOUS
10
94.0493239999999986
20
-138.6957349999999849
11
94.0155419999999964
21
-138.8218139999999892
0
LINE
8
BLACK
6
CONTINUOUS
10
94.0155419999999964
20
-138.8218139999999892
11
93.9502789999999948
21
-138.9348530000000039
0
LINE
8
BLACK
6
CONTINUOUS
10
93.9502789999999948
20
-138.9348530000000039
11
93.8579829999999902
21
-139.0271489999999801
0
LINE
8
BLACK
6
CONTINUOUS
10
93.8579829999999902
20
-139.0271489999999801
11
93.7449439999999896
21
-139.0924119999999959
0
LINE
8
BLACK
6
CONTINUOUS
10
93.7449439999999896
20
-139.0924119999999959
11
93.6188649999999996
21
-139.1261939999999981
0
LINE
8
BLACK
6
CONTINUOUS
10
93.6188649999999996
20
-139.1261939999999981
11
93.4883389999999963
21
-139.1261939999999981
0
LINE
8
BLACK
6
CONTINUOUS
10
93.4883389999999963
20
-139.1261939999999981
11
93.362259999999992
21
-139.0924119999999959
0
LINE
8
BLACK
6
CONTINUOUS
10
93.362259999999992
20
-139.0924119999999959
11
93.2492209999999915
21
-139.0271489999999801
0
LINE
8
BLACK
6
CONTINUOUS
10
93.2492209999999915
20
-139.0271489999999801
11
93.1569250000000011
21
-138.9348530000000039
0
LINE
8
BLACK
6
CONTINUOUS
10
93.1569250000000011
20
-138.9348530000000039
11
93.0916619999999995
21
-138.8218139999999892
0
LINE
8
BLACK
6
CONTINUOUS
10
93.0916619999999995
20
-138.8218139999999892
11
93.0578799999999973
21
-138.6957349999999849
0
LINE
8
BLACK
6
CONTINUOUS
10
93.0578799999999973
20
-138.6957349999999849
11
93.0536019999999979
21
-138.6304719999999975
0
LINE
8
BLACK
6
CONTINUOUS
10
93.0536019999999979
20
-138.6304719999999975
11
93.0536019999999979
21
-137.1304719999999975
0
LINE
8
BLACK
6
CONTINUOUS
10
93.0536019999999979
20
-137.1304719999999975
11
93.0578799999999973
21
-137.0652089999999816
0
LINE
8
BLACK
6
CONTINUOUS
10
93.0578799999999973
20
-137.0652089999999816
11
93.0916619999999995
21
-136.9391300000000058
0
LINE
8
BLACK
6
CONTINUOUS
10
93.0916619999999995
20
-136.9391300000000058
11
93.1569250000000011
21
-136.826090999999991
0
LINE
8
BLACK
6
CONTINUOUS
10
93.1569250000000011
20
-136.826090999999991
11
93.2492209999999915
21
-136.7337949999999864
0
LINE
8
BLACK
6
CONTINUOUS
10
93.2492209999999915
20
-136.7337949999999864
11
93.362259999999992
21
-136.668531999999999
0
LINE
8
BLACK
6
CONTINUOUS
10
93.362259999999992
20
-136.668531999999999
11
93.4883389999999963
21
-136.6347499999999968
0
LINE
8
BLACK
6
CONTINUOUS
10
93.4883389999999963
20
-136.6347499999999968
11
93.6188649999999996
21
-136.6347499999999968
0
LINE
8
BLACK
6
CONTINUOUS
10
93.6188649999999996
20
-136.6347499999999968
11
93.7449439999999896
21
-136.668531999999999
0
LINE
8
BLACK
6
CONTINUOUS
10
93.7449439999999896
20
-136.668531999999999
11
93.8579829999999902
21
-136.7337949999999864
0
LINE
8
BLACK
6
CONTINUOUS
10
93.8579829999999902
20
-136.7337949999999864
11
93.9502789999999948
21
-136.826090999999991
0
LINE
8
BLACK
6
CONTINUOUS
10
93.9502789999999948
20
-136.826090999999991
11
94.0155419999999964
21
-136.9391300000000058
0
LINE
8
BLACK
6
CONTINUOUS
10
94.0155419999999964
20
-136.9391300000000058
11
94.0493239999999986
21
-137.0652089999999816
0
LINE
8
BLACK
6
CONTINUOUS
10
94.0493239999999986
20
-137.0652089999999816
11
94.0536019999999979
21
-137.1304719999999975
0
LINE
8
BLACK
6
CONTINUOUS
10
94.0536019999999979
20
-137.1304719999999975
11
94.0536019999999979
21
-138.6304719999999975
0
LINE
8
BLACK
6
CONTINUOUS
10
94.0536019999999979
20
-138.6304719999999975
11
94.0493239999999986
21
-138.6957349999999849
0
LINE
8
BLACK
6
CONTINUOUS
10
103.0493239999999986
20
-138.6957349999999849
11
103.0155419999999964
21
-138.8218139999999892
0
LINE
8
BLACK
6
CONTINUOUS
10
103.0155419999999964
20
-138.8218139999999892
11
102.9502789999999948
21
-138.9348530000000039
0
LINE
8
BLACK
6
CONTINUOUS
10
102.9502789999999948
20
-138.9348530000000039
11
102.8579829999999902
21
-139.0271489999999801
0
LINE
8
BLACK
6
CONTINUOUS
10
102.8579829999999902
20
-139.0271489999999801
11
102.7449439999999896
21
-139.0924119999999959
0
LINE
8
BLACK
6
CONTINUOUS
10
102.7449439999999896
20
-139.0924119999999959
11
102.6188649999999996
21
-139.1261939999999981
0
LINE
8
BLACK
6
CONTINUOUS
10
102.6188649999999996
20
-139.1261939999999981
11
102.4883389999999963
21
-139.1261939999999981
0
LINE
8
BLACK
6
CONTINUOUS
10
102.4883389999999963
20
-139.1261939999999981
11
102.362259999999992
21
-139.0924119999999959
0
LINE
8
BLACK
6
CONTINUOUS
10
102.362259999999992
20
-139.0924119999999959
11
102.2492209999999915
21
-139.0271489999999801
0
LINE
8
BLACK
6
CONTINUOUS
10
102.2492209999999915
20
-139.0271489999999801
11
102.1569250000000011
21
-138.9348530000000039
0
LINE
8
BLACK
6
CONTINUOUS
10
102.1569250000000011
20
-138.9348530000000039
11
102.0916619999999995
21
-138.8218139999999892
0
LINE
8
BLACK
6
CONTINUOUS
10
102.0916619999999995
20
-138.8218139999999892
11
102.0578799999999973
21
-138.6957349999999849
0
LINE
8
BLACK
6
CONTINUOUS
10
102.0578799999999973
20
-138.6957349999999849
11
102.0536019999999979
21
-138.6304719999999975
0
LINE
8
BLACK
6
CONTINUOUS
10
102.0536019999999979
20
-138.6304719999999975
11
102.0536019999999979
21
-137.1304719999999975
0
LINE
8
BLACK
6
CONTINUOUS
10
102.0536019999999979
20
-137.1304719999999975
11
102.0578799999999973
21
-137.0652089999999816
0
LINE
8
BLACK
6
CONTINUOUS
10
102.0578799999999973
20
-137.0652089999999816
11
102.0916619999999995
21
-136.9391300000000058
0
LINE
8
BLACK
6
CONTINUOUS
10
102.0916619999999995
20
-136.9391300000000058
11
102.1569250000000011
21
-136.826090999999991
0
LINE
8
BLACK
6
CONTINUOUS
10
102.1569250000000011
20
-136.826090999999991
11
102.2492209999999915
21
-136.7337949999999864
0
LINE
8
BLACK
6
CONTINUOUS
10
102.2492209999999915
20
-136.7337949999999864
11
102.362259999999992
21
-136.668531999999999
0
LINE
8
BLACK
6
CONTINUOUS
10
102.362259999999992
20
-136.668531999999999
11
102.4883389999999963
21
-136.6347499999999968
0
LINE
8
BLACK
6
CONTINUOUS
10
102.4883389999999963
20
-136.6347499999999968
11
102.6188649999999996
21
-136.6347499999999968
0
LINE
8
BLACK
6
CONTINUOUS
10
102.6188649999999996
20
-136.6347499999999968
11
102.7449439999999896
21
-136.668531999999999
0
LINE
8
BLACK
6
CONTINUOUS
10
102.7449439999999896
20
-136.668531999999999
11
102.8579829999999902
21
-136.7337949999999864
0
LINE
8
BLACK
6
CONTINUOUS
10
102.8579829999999902
20
-136.7337949999999864
11
102.9502789999999948
21
-136.826090999999991
0
LINE
8
BLACK
6
CONTINUOUS
10
102.9502789999999948
20
-136.826090999999991
11
103.0155419999999964
21
-136.9391300000000058
0
LINE
8
BLACK
6
CONTINUOUS
10
103.0155419999999964
20
-136.9391300000000058
11
103.0493239999999986
21
-137.0652089999999816
0
LINE
8
BLACK
6
CONTINUOUS
10
103.0493239999999986
20
-137.0652089999999816
11
103.0536019999999979
21
-137.1304719999999975
0
LINE
8
BLACK
6
CONTINUOUS
10
103.0536019999999979
20
-137.1304719999999975
11
103.0536019999999979
21
-138.6304719999999975
0
LINE
8
BLACK
6
CONTINUOUS
10
103.0536019999999979
20
-138.6304719999999975
11
103.0493239999999986
21
-138.6957349999999849
0
CIRCLE
8
BLACK
10
158.7364029999999957
20
-96.5887559999999894
40
0.5
0
CIRCLE
8
BLACK
10
158.7364029999999957
20
-99.1287559999999957
40
0.5
0
CIRCLE
8
BLACK
10
158.7364029999999957
20
-101.6687560000000019
40
0.5
0
CIRCLE
8
BLACK
10
158.7364029999999957
20
-104.2087559999999939
40
0.5
0
CIRCLE
8
BLACK
10
150.5203469999999868
20
-102.1466769999999968
40
0.4
0
CIRCLE
8
BLACK
10
150.5203469999999868
20
-99.6466769999999968
40
0.4
0
CIRCLE
8
BLACK
10
159.0466279999999983
20
-139.7702720000000056
40
1.5999999999999999
0
CIRCLE
8
BLACK
10
93.1303369999999973
20
-92.6867110000000025
40
1.5999999999999999
0
CIRCLE
8
BLACK
10
107.0584580000000017
20
-140.0087100000000078
40
0.5
0
CIRCLE
8
BLACK
10
109.5984579999999937
20
-140.0087100000000078
40
0.5
0
CIRCLE
8
BLACK
10
112.138458
20
-140.0087100000000078
40
0.5
0
CIRCLE
8
BLACK
10
142.1514520000000061
20
-139.7265759999999943
40
0.5499999999999999
0
CIRCLE
8
BLACK
10
152.3114520000000027
20
-139.7265759999999943
40
0.5499999999999999
0
CIRCLE
8
BLACK
10
157.7257610000000057
20
-120.5659390000000002
40
1.0999989999999999
0
CIRCLE
8
BLACK
10
154.6957610000000045
20
-120.8659389999999973
40
0.9249989999999999
0
CIRCLE
8
BLACK
10
154.6957610000000045
20
-125.7159389999999917
40
0.9249989999999999
0
CIRCLE
8
BLACK
10
157.7257610000000057
20
-126.0159389999999888
40
1.0999989999999999
0
CIRCLE
8
BLACK
10
157.8557610000000011
20
-114.4009389999999939
40
0.5
0
CIRCLE
8
BLACK
10
155.3157609999999806
20
-114.4009389999999939
40
0.5
0
CIRCLE
8
BLACK
10
152.7757609999999886
20
-114.4009389999999939
40
0.5
0
CIRCLE
8
BLACK
10
150.2357609999999966
20
-114.4009389999999939
40
0.5
0
CIRCLE
8
BLACK
10
147.6957610000000045
20
-114.4009389999999939
40
0.5
0
CIRCLE
8
BLACK
10
145.1557609999999841
20
-114.4009389999999939
40
0.5
0
CIRCLE
8
BLACK
10
142.615760999999992
20
-114.4009389999999939
40
0.5
0
CIRCLE
8
BLACK
10
140.075761
20
-114.4009389999999939
40
0.5
0
CIRCLE
8
BLACK
10
137.5357610000000079
20
-114.4009389999999939
40
0.5
0
CIRCLE
8
BLACK
10
134.9957609999999875
20
-114.4009389999999939
40
0.5
0
CIRCLE
8
BLACK
10
132.4557609999999954
20
-114.4009389999999939
40
0.5
0
CIRCLE
8
BLACK
10
129.9157610000000034
20
-114.4009389999999939
40
0.5
0
CIRCLE
8
BLACK
10
127.3757609999999971
20
-114.4009389999999939
40
0.5
0
CIRCLE
8
BLACK
10
124.8357609999999909
20
-114.4009389999999939
40
0.5
0
CIRCLE
8
BLACK
10
122.2957609999999988
20
-114.4009389999999939
40
0.5
0
CIRCLE
8
BLACK
10
119.7557609999999926
20
-114.4009389999999939
40
0.5
0
CIRCLE
8
BLACK
10
117.2157610000000005
20
-114.4009389999999939
40
0.5
0
CIRCLE
8
BLACK
10
114.6757609999999943
20
-114.4009389999999939
40
0.5
0
CIRCLE
8
BLACK
10
112.135760999999988
20
-114.4009389999999939
40
0.5
0
CIRCLE
8
BLACK
10
109.595760999999996
20
-114.4009389999999939
40
0.5
0
CIRCLE
8
BLACK
10
109.595760999999996
20
-132.1809389999999951
40
0.5
0
CIRCLE
8
BLACK
10
112.135760999999988
20
-132.1809389999999951
40
0.5
0
CIRCLE
8
BLACK
10
114.6757609999999943
20
-132.1809389999999951
40
0.5
0
CIRCLE
8
BLACK
10
117.2157610000000005
20
-132.1809389999999951
40
0.5
0
CIRCLE
8
BLACK
10
119.7557609999999926
20
-132.1809389999999951
40
0.5
0
CIRCLE
8
BLACK
10
122.2957609999999988
20
-132.1809389999999951
40
0.5
0
CIRCLE
8
BLACK
10
124.8357609999999909
20
-132.1809389999999951
40
0.5
0
CIRCLE
8
BLACK
10
127.3757609999999971
20
-132.1809389999999951
40
0.5
0
CIRCLE
8
BLACK
10
129.9157610000000034
20
-132.1809389999999951
40
0.5
0
CIRCLE
8
BLACK
10
132.4557609999999954
20
-132.1809389999999951
40
0.5
0
CIRCLE
8
BLACK
10
134.9957609999999875
20
-132.1809389999999951
40
0.5
0
CIRCLE
8
BLACK
10
137.5357610000000079
20
-132.1809389999999951
40
0.5
0
CIRCLE
8
BLACK
10
140.075761
20
-132.1809389999999951
40
0.5
0
CIRCLE
8
BLACK
10
142.615760999999992
20
-132.1809389999999951
40
0.5
0
CIRCLE
8
BLACK
10
145.1557609999999841
20
-132.1809389999999951
40
0.5
0
CIRCLE
8
BLACK
10
147.6957610000000045
20
-132.1809389999999951
40
0.5
0
CIRCLE
8
BLACK
10
150.2357609999999966
20
-132.1809389999999951
40
0.5
0
CIRCLE
8
BLACK
10
152.7757609999999886
20
-132.1809389999999951
40
0.5
0
CIRCLE
8
BLACK
10
155.3157609999999806
20
-132.1809389999999951
40
0.5
0
CIRCLE
8
BLACK
10
157.8557610000000011
20
-132.1809389999999951
40
0.5
0
CIRCLE
8
BLACK
10
95.8535329999999988
20
-107.7809609999999907
40
0.5
0
CIRCLE
8
BLACK
10
95.8535329999999988
20
-110.3209609999999969
40
0.5
0
CIRCLE
8
BLACK
10
95.8535329999999988
20
-112.860960999999989
40
0.5
0
CIRCLE
8
BLACK
10
95.8535329999999988
20
-115.4009609999999952
40
0.5
0
CIRCLE
8
BLACK
10
95.8535329999999988
20
-117.9409610000000015
40
0.5
0
CIRCLE
8
BLACK
10
95.8535329999999988
20
-120.4809609999999935
40
0.5
0
CIRCLE
8
BLACK
10
95.8535329999999988
20
-123.0209609999999998
40
0.5
0
CIRCLE
8
BLACK
10
95.8535329999999988
20
-125.5609609999999918
40
0.5
0
CIRCLE
8
BLACK
10
93.007953999999998
20
-101.542554999999993
40
0.4
0
CIRCLE
8
BLACK
10
93.007953999999998
20
-99.042554999999993
40
0.4
0
CIRCLE
8
BLACK
10
145.1557609999999841
20
-96.6501359999999892
40
0.4
0
CIRCLE
8
BLACK
10
142.615760999999992
20
-96.6501359999999892
40
0.4
0
CIRCLE
8
BLACK
10
140.075761
20
-96.6501359999999892
40
0.4
0
CIRCLE
8
BLACK
10
137.5357610000000079
20
-96.6501359999999892
40
0.4
0
CIRCLE
8
BLACK
10
134.9957609999999875
20
-96.6501359999999892
40
0.4
0
CIRCLE
8
BLACK
10
132.4557609999999954
20
-96.6501359999999892
40
0.4
0
CIRCLE
8
BLACK
10
129.9157610000000034
20
-96.6501359999999892
40
0.4
0
CIRCLE
8
BLACK
10
127.3757609999999971
20
-96.6501359999999892
40
0.4
0
CIRCLE
8
BLACK
10
124.8357609999999909
20
-96.6501359999999892
40
0.4
0
CIRCLE
8
BLACK
10
122.2957609999999988
20
-96.6501359999999892
40
0.4
0
CIRCLE
8
BLACK
10
122.2957609999999988
20
-104.2701359999999937
40
0.4
0
CIRCLE
8
BLACK
10
124.8357609999999909
20
-104.2701359999999937
40
0.4
0
CIRCLE
8
BLACK
10
127.3757609999999971
20
-104.2701359999999937
40
0.4
0
CIRCLE
8
BLACK
10
129.9157610000000034
20
-104.2701359999999937
40
0.4
0
CIRCLE
8
BLACK
10
132.4557609999999954
20
-104.2701359999999937
40
0.4
0
CIRCLE
8
BLACK
10
134.9957609999999875
20
-104.2701359999999937
40
0.4
0
CIRCLE
8
BLACK
10
137.5357610000000079
20
-104.2701359999999937
40
0.4
0
CIRCLE
8
BLACK
10
140.075761
20
-104.2701359999999937
40
0.4
0
CIRCLE
8
BLACK
10
142.615760999999992
20
-104.2701359999999937
40
0.4
0
CIRCLE
8
BLACK
10
145.1557609999999841
20
-104.2701359999999937
40
0.4
0
CIRCLE
8
BLACK
10
150.147120000000001
20
-88.2518759999999958
40
0.381
0
CIRCLE
8
BLACK
10
150.147120000000001
20
-85.7118759999999895
40
0.381
0
CIRCLE
8
BLACK
10
160.3071199999999976
20
-88.2518759999999958
40
0.381
0
CIRCLE
8
BLACK
10
157.7671200000000056
20
-88.2518759999999958
40
0.381
0
CIRCLE
8
BLACK
10
155.2271199999999851
20
-88.2518759999999958
40
0.381
0
CIRCLE
8
BLACK
10
152.6871199999999931
20
-88.2518759999999958
40
0.381
0
CIRCLE
8
BLACK
10
147.6071199999999806
20
-88.2518759999999958
40
0.381
0
CIRCLE
8
BLACK
10
145.0671199999999885
20
-88.2518759999999958
40
0.381
0
CIRCLE
8
BLACK
10
142.5271199999999965
20
-88.2518759999999958
40
0.381
0
CIRCLE
8
BLACK
10
139.9871200000000044
20
-88.2518759999999958
40
0.381
0
CIRCLE
8
BLACK
10
137.447119999999984
20
-88.2518759999999958
40
0.381
0
CIRCLE
8
BLACK
10
134.9071199999999919
20
-88.2518759999999958
40
0.381
0
CIRCLE
8
BLACK
10
132.3671199999999999
20
-88.2518759999999958
40
0.381
0
CIRCLE
8
BLACK
10
129.8271200000000078
20
-88.2518759999999958
40
0.381
0
CIRCLE
8
BLACK
10
127.2871199999999874
20
-88.2518759999999958
40
0.381
0
CIRCLE
8
BLACK
10
124.7471199999999953
20
-88.2518759999999958
40
0.381
0
CIRCLE
8
BLACK
10
122.2071199999999891
20
-88.2518759999999958
40
0.381
0
CIRCLE
8
BLACK
10
119.667119999999997
20
-88.2518759999999958
40
0.381
0
CIRCLE
8
BLACK
10
117.1271199999999908
20
-88.2518759999999958
40
0.381
0
CIRCLE
8
BLACK
10
114.5871199999999988
20
-88.2518759999999958
40
0.381
0
CIRCLE
8
BLACK
10
112.0471199999999925
20
-88.2518759999999958
40
0.381
0
CIRCLE
8
BLACK
10
109.5071200000000005
20
-88.2518759999999958
40
0.381
0
CIRCLE
8
BLACK
10
106.9671199999999942
20
-88.2518759999999958
40
0.381
0
CIRCLE
8
BLACK
10
104.4271200000000022
20
-88.2518759999999958
40
0.381
0
CIRCLE
8
BLACK
10
101.8871199999999959
20
-88.2518759999999958
40
0.381
0
CIRCLE
8
BLACK
10
99.3471199999999897
20
-88.2518759999999958
40
0.381
0
CIRCLE
8
BLACK
10
96.8071199999999976
20
-88.2518759999999958
40
0.381
0
CIRCLE
8
BLACK
10
94.2671199999999914
20
-88.2518759999999958
40
0.381
0
CIRCLE
8
BLACK
10
91.7271199999999993
20
-88.2518759999999958
40
0.381
0
CIRCLE
8
BLACK
10
160.3071199999999976
20
-85.7118759999999895
40
0.381
0
CIRCLE
8
BLACK
10
157.7671200000000056
20
-85.7118759999999895
40
0.381
0
CIRCLE
8
BLACK
10
155.2271199999999851
20
-85.7118759999999895
40
0.381
0
CIRCLE
8
BLACK
10
152.6871199999999931
20
-85.7118759999999895
40
0.381
0
CIRCLE
8
BLACK
10
147.6071199999999806
20
-85.7118759999999895
40
0.381
0
CIRCLE
8
BLACK
10
145.0671199999999885
20
-85.7118759999999895
40
0.381
0
CIRCLE
8
BLACK
10
142.5271199999999965
20
-85.7118759999999895
40
0.381
0
CIRCLE
8
BLACK
10
139.9871200000000044
20
-85.7118759999999895
40
0.381
0
CIRCLE
8
BLACK
10
137.447119999999984
20
-85.7118759999999895
40
0.381
0
CIRCLE
8
BLACK
10
134.9071199999999919
20
-85.7118759999999895
40
0.381
0
CIRCLE
8
BLACK
10
132.3671199999999999
20
-85.7118759999999895
40
0.381
0
CIRCLE
8
BLACK
10
129.8271200000000078
20
-85.7118759999999895
40
0.381
0
CIRCLE
8
BLACK
10
127.2871199999999874
20
-85.7118759999999895
40
0.381
0
CIRCLE
8
BLACK
10
124.7471199999999953
20
-85.7118759999999895
40
0.381
0
CIRCLE
8
BLACK
10
122.2071199999999891
20
-85.7118759999999895
40
0.381
0
CIRCLE
8
BLACK
10
119.667119999999997
20
-85.7118759999999895
40
0.381
0
CIRCLE
8
BLACK
10
117.1271199999999908
20
-85.7118759999999895
40
0.381
0
CIRCLE
8
BLACK
10
114.5871199999999988
20
-85.7118759999999895
40
0.381
0
CIRCLE
8
BLACK
10
112.0471199999999925
20
-85.7118759999999895
40
0.381
0
CIRCLE
8
BLACK
10
109.5071200000000005
20
-85.7118759999999895
40
0.381
0
CIRCLE
8
BLACK
10
106.9671199999999942
20
-85.7118759999999895
40
0.381
0
CIRCLE
8
BLACK
10
104.4271200000000022
20
-85.7118759999999895
40
0.381
0
CIRCLE
8
BLACK
10
101.8871199999999959
20
-85.7118759999999895
40
0.381
0
CIRCLE
8
BLACK
10
99.3471199999999897
20
-85.7118759999999895
40
0.381
0
CIRCLE
8
BLACK
10
96.8071199999999976
20
-85.7118759999999895
40
0.381
0
CIRCLE
8
BLACK
10
94.2671199999999914
20
-85.7118759999999895
40
0.381
0
CIRCLE
8
BLACK
10
91.7271199999999993
20
-85.7118759999999895
40
0.381
0
CIRCLE
8
BLACK
10
152.278412000000003
20
-93.7652109999999936
40
1.5999989999999999
0
CIRCLE
8
BLACK
10
113.6491669999999914
20
-96.5603179999999952
40
0.4
0
CIRCLE
8
BLACK
10
111.1091669999999993
20
-96.5603179999999952
40
0.4
0
CIRCLE
8
BLACK
10
108.5691669999999931
20
-96.5603179999999952
40
0.4
0
CIRCLE
8
BLACK
10
106.0291670000000011
20
-96.5603179999999952
40
0.4
0
CIRCLE
8
BLACK
10
103.4891669999999948
20
-96.5603179999999952
40
0.4
0
CIRCLE
8
BLACK
10
100.9491669999999885
20
-96.5603179999999952
40
0.4
0
CIRCLE
8
BLACK
10
98.4091669999999965
20
-96.5603179999999952
40
0.4
0
CIRCLE
8
BLACK
10
98.4091669999999965
20
-104.1803179999999998
40
0.4
0
CIRCLE
8
BLACK
10
100.9491669999999885
20
-104.1803179999999998
40
0.4
0
CIRCLE
8
BLACK
10
103.4891669999999948
20
-104.1803179999999998
40
0.4
0
CIRCLE
8
BLACK
10
106.0291670000000011
20
-104.1803179999999998
40
0.4
0
CIRCLE
8
BLACK
10
108.5691669999999931
20
-104.1803179999999998
40
0.4
0
CIRCLE
8
BLACK
10
111.1091669999999993
20
-104.1803179999999998
40
0.4
0
CIRCLE
8
BLACK
10
113.6491669999999914
20
-104.1803179999999998
40
0.4
0
CIRCLE
8
BLACK
10
98.0536019999999979
20
-139.8804719999999975
40
0.799999
0
LINE
8
BLACK
6
CONTINUOUS
10
97.0536019999999979
20
-131.3804719999999975
11
99.0536019999999979
21
-131.3804719999999975
0
ARC
8
BLACK
10
99.0536019999999979
20
-130.8804719999999975
40
0.5
50
-90.00000000
51
90.00000000
0
LINE
8
BLACK
6
CONTINUOUS
10
99.0536019999999979
20
-130.3804719999999975
11
97.0536019999999979
21
-130.3804719999999975
0
ARC
8
BLACK
10
97.0536019999999979
20
-130.8804719999999975
40
0.5
50
90.00000000
51
270.00000000
0
LINE
8
BLACK
6
CONTINUOUS
10
97.4036019999999922
20
-137.3804719999999975
11
98.7036019999999894
21
-137.3804719999999975
0
ARC
8
BLACK
10
98.7036019999999894
20
-136.8804719999999975
40
0.5
50
-90.00000000
51
90.00000000
0
LINE
8
BLACK
6
CONTINUOUS
10
98.7036019999999894
20
-136.3804719999999975
11
97.4036019999999922
21
-136.3804719999999975
0
ARC
8
BLACK
10
97.4036019999999922
20
-136.8804719999999975
40
0.5
50
90.00000000
51
270.00000000
0
LINE
8
BLACK
6
CONTINUOUS
10
93.0536019999999979
20
-137.1304719999999975
11
93.0536019999999979
21
-138.6304719999999975
0
ARC
8
BLACK
10
93.5536019999999979
20
-138.6304719999999975
40
0.5
50
-180.00000000
51
0.00000000
0
LINE
8
BLACK
6
CONTINUOUS
10
94.0536019999999979
20
-138.6304719999999975
11
94.0536019999999979
21
-137.1304719999999975
0
ARC
8
BLACK
10
93.5536019999999979
20
-137.1304719999999975
40
0.5
50
0.00000000
51
180.00000000
0
LINE
8
BLACK
6
CONTINUOUS
10
102.0536019999999979
20
-137.1304719999999975
11
102.0536019999999979
21
-138.6304719999999975
0
ARC
8
BLACK
10
102.5536019999999979
20
-138.6304719999999975
40
0.5
50
-180.00000000
51
0.00000000
0
LINE
8
BLACK
6
CONTINUOUS
10
103.0536019999999979
20
-138.6304719999999975
11
103.0536019999999979
21
-137.1304719999999975
0
ARC
8
BLACK
10
102.5536019999999979
20
-137.1304719999999975
40
0.5
50
0.00000000
51
180.00000000
0
CIRCLE
8
BLACK
10
158.7364029999999957
20
-96.5887559999999894
40
0.5
0
CIRCLE
8
BLACK
10
158.7364029999999957
20
-99.1287559999999957
40
0.5
0
CIRCLE
8
BLACK
10
158.7364029999999957
20
-101.6687560000000019
40
0.5
0
CIRCLE
8
BLACK
10
158.7364029999999957
20
-104.2087559999999939
40
0.5
0
CIRCLE
8
BLACK
10
150.5203469999999868
20
-102.1466769999999968
40
0.4
0
CIRCLE
8
BLACK
10
150.5203469999999868
20
-99.6466769999999968
40
0.4
0
CIRCLE
8
BLACK
10
159.0466279999999983
20
-139.7702720000000056
40
1.5999989999999999
0
CIRCLE
8
BLACK
10
93.1303369999999973
20
-92.6867110000000025
40
1.5999989999999999
  0
ENDSEC
  0
EOF
